<?xml version="1.0" encoding="utf-8"?>
<!-- Generator: Adobe Illustrator 16.0.0, SVG Export Plug-In . SVG Version: 6.00 Build 0)  -->
<!DOCTYPE svg PUBLIC "-//W3C//DTD SVG 1.1//EN" "http://www.w3.org/Graphics/SVG/1.1/DTD/svg11.dtd">
<svg version="1.1" id="Layer_1" xmlns="http://www.w3.org/2000/svg" xmlns:xlink="http://www.w3.org/1999/xlink" x="0px" y="0px"
	 width="103.85px" height="83.05px" viewBox="0 0 103.85 83.05" enable-background="new 0 0 103.85 83.05" xml:space="preserve">
<g id="logo" transform="translate(-177.946 -95.557)">
	<g id="Group_5" transform="translate(177.946 95.66)">
		<g id="Group_4">
			<g id="Group_2">
				<g id="Group_1">
					<path id="Path_1" fill="#FFFFFF" d="M0,66.548V52.204h5.054v14.344c0,1.177,0.588,1.647,1.412,1.647
						c0.802,0.047,1.49-0.565,1.537-1.367c0.006-0.094,0.002-0.188-0.01-0.28V0.353h5.061v66.195
						c0.047,3.59-2.824,6.538-6.414,6.585c-0.057,0.001-0.112,0.001-0.169,0c-3.497,0.078-6.396-2.693-6.475-6.189
						C-0.007,66.811-0.006,66.68,0,66.548z"/>
					<path id="Path_2" fill="#FFFFFF" d="M28.447,0.353h5.168v65.959c0.046,3.733-2.944,6.797-6.678,6.842
						c-3.733,0.046-6.797-2.943-6.843-6.678c-0.001-0.055-0.001-0.109,0-0.164V0.353h4.938v65.959
						c0.038,1.004,0.876,1.789,1.881,1.764c0.899-0.084,1.573-0.861,1.527-1.764L28.447,0.353z"/>
					<path id="Path_3" fill="#FFFFFF" d="M78.948,0.353h5.171v65.959c0.045,3.733-2.944,6.797-6.679,6.842
						c-3.733,0.046-6.797-2.943-6.843-6.678c-0.001-0.055-0.001-0.109,0-0.164V0.353h4.938v65.959
						c0.038,1.004,0.877,1.789,1.881,1.764c0.899-0.084,1.572-0.861,1.527-1.764L78.948,0.353z"/>
					<path id="Path_4" fill="#FFFFFF" d="M100.083,42.445c1.764,4.351,3.88,9.054,3.763,14.932v8.113c0,4.351-2.7,7.642-6.82,7.642
						c-3.88,0-6.818-3.292-6.818-7.524V51.378h5.173v14.931c-0.036,0.938,0.695,1.729,1.634,1.764c0.004,0,0.008,0,0.012,0
						c0.965-0.023,1.74-0.799,1.765-1.764v-8.931c0-4.114-1.529-8.349-3.058-12.108l-1.294-3.176
						c-0.123-0.129-0.205-0.293-0.233-0.47c-2-4.585-4-9.288-4-14.814V7.291C90.205,3.41,92.791,0,96.905,0
						c3.497-0.077,6.395,2.696,6.471,6.192c0.003,0.13,0.002,0.261-0.003,0.392v14.345h-5.056V6.584
						c0-1.175-0.589-1.527-1.412-1.527c-0.748-0.096-1.433,0.434-1.528,1.183c-0.015,0.114-0.015,0.229,0,0.344v20.224
						c0,4.7,1.646,9.053,3.88,13.639L100.083,42.445z"/>
				</g>
			</g>
			<g id="Group_3" transform="translate(1.172 77.937)">
				<path id="Path_5" fill="#FF9E15" d="M0,2.504c-0.01-1.377,1.098-2.5,2.475-2.51c0.063-0.001,0.127,0.001,0.19,0.006
					c0.958-0.045,1.84,0.52,2.2,1.408L3.602,1.997C3.466,1.591,3.093,1.313,2.665,1.297c-0.67,0.02-1.197,0.578-1.178,1.247
					c0.019,0.643,0.535,1.159,1.178,1.177c0.428-0.015,0.801-0.293,0.937-0.699l1.264,0.581c-0.364,0.887-1.242,1.452-2.2,1.416
					C1.287,5.11,0.097,4.067,0.005,2.69C0.001,2.628-0.001,2.567,0,2.504z"/>
				<path id="Path_6" fill="#FF9E15" d="M6.223,2.504C6.138,1.042,7.255-0.214,8.719-0.3s2.72,1.031,2.805,2.495
					c0.086,1.464-1.031,2.72-2.495,2.806C8.977,5.003,8.926,5.004,8.874,5.004C7.496,5.088,6.311,4.039,6.228,2.661
					C6.225,2.609,6.223,2.557,6.223,2.504z M10.035,2.504c-0.028-0.641-0.57-1.139-1.212-1.111s-1.14,0.57-1.112,1.212
					c0.027,0.622,0.54,1.113,1.163,1.112c0.633,0.01,1.153-0.496,1.163-1.129C10.037,2.561,10.036,2.534,10.035,2.504L10.035,2.504z
					"/>
				<path id="Path_7" fill="#FF9E15" d="M16.461,4.922l-1.786-2.453v2.453h-1.467V0.081h1.511l1.685,2.295V0.081h1.467v4.844
					L16.461,4.922z"/>
				<path id="Path_8" fill="#FF9E15" d="M23.069,4.922l-1.787-2.453v2.453h-1.467V0.081h1.511l1.684,2.295V0.081h1.467v4.844
					L23.069,4.922z"/>
				<path id="Path_9" fill="#FF9E15" d="M26.424,4.922V0.081h3.674v1.277h-2.207v0.479h2.157v1.279h-2.157v0.529h2.207v1.277H26.424
					z"/>
				<path id="Path_10" fill="#FF9E15" d="M31.652,2.504c-0.011-1.377,1.098-2.5,2.475-2.51c0.063-0.001,0.127,0.001,0.189,0.006
					c0.958-0.045,1.841,0.52,2.2,1.408l-1.263,0.588c-0.136-0.405-0.51-0.684-0.938-0.699c-0.669,0.02-1.196,0.578-1.177,1.247
					c0.019,0.643,0.535,1.159,1.177,1.177c0.428-0.015,0.802-0.293,0.938-0.699l1.263,0.581c-0.363,0.886-1.242,1.452-2.2,1.416
					C32.94,5.11,31.748,4.067,31.657,2.69C31.653,2.628,31.651,2.567,31.652,2.504z"/>
				<path id="Path_11" fill="#FF9E15" d="M39.175,4.922V1.358h-1.3V0.081h4.059v1.277h-1.293v3.564H39.175z"/>
				<path id="Path_12" fill="#FF9E15" d="M43.619,4.922V0.081h3.674v1.277h-2.208v0.479h2.157v1.279h-2.157v0.529h2.208v1.277
					H43.619z"/>
				<path id="Path_13" fill="#FF9E15" d="M49.109,4.922V0.081h2.164c1.338-0.125,2.522,0.859,2.646,2.197
					c0.124,1.338-0.86,2.521-2.197,2.646c-0.146,0.014-0.294,0.014-0.44,0.001L49.109,4.922z M52.442,2.499
					c0.048-0.584-0.386-1.095-0.969-1.143c-0.063-0.005-0.128-0.004-0.191,0.002h-0.7v2.287h0.7c0.617,0.023,1.137-0.459,1.16-1.076
					C52.443,2.545,52.443,2.522,52.442,2.499L52.442,2.499z"/>
				<path id="Path_14" fill="#FF9E15" d="M59.667,4.922V1.358h-1.3V0.081h4.059v1.277h-1.292v3.564H59.667z"/>
				<path id="Path_15" fill="#FF9E15" d="M63.704,2.504c-0.086-1.463,1.031-2.719,2.495-2.805s2.72,1.031,2.806,2.495
					s-1.031,2.72-2.495,2.806c-0.052,0.003-0.104,0.004-0.156,0.004c-1.378,0.084-2.563-0.967-2.646-2.346
					C63.705,2.608,63.704,2.557,63.704,2.504z M67.516,2.504c-0.027-0.641-0.57-1.139-1.212-1.111s-1.14,0.57-1.111,1.212
					c0.026,0.622,0.539,1.112,1.161,1.112c0.634,0.01,1.155-0.496,1.164-1.129C67.519,2.561,67.518,2.533,67.516,2.504z"/>
				<path id="Path_16" fill="#FF9E15" d="M73.441,2.504c-0.013-1.373,1.091-2.498,2.465-2.511c0.067-0.001,0.134,0.001,0.2,0.007
					c0.897-0.041,1.733,0.455,2.128,1.262l-1.234,0.633c-0.158-0.355-0.505-0.588-0.894-0.6c-0.669,0.02-1.196,0.578-1.177,1.247
					c0.019,0.643,0.535,1.159,1.177,1.177c0.268,0,0.529-0.076,0.757-0.217V3.329h-0.9V2.049h2.36v1.982
					c-0.559,0.637-1.369,0.996-2.216,0.98c-1.372,0.096-2.563-0.938-2.659-2.311C73.443,2.637,73.441,2.571,73.441,2.504z"/>
				<path id="Path_17" fill="#FF9E15" d="M82.801,4.922l-0.668-1.524h-0.53v1.524h-1.467V0.081h2.585
					c0.887-0.074,1.665,0.585,1.738,1.472c0.006,0.063,0.007,0.127,0.005,0.19c0.026,0.619-0.316,1.194-0.872,1.467l0.879,1.715
					L82.801,4.922z M82.975,1.736c0-0.262-0.232-0.378-0.479-0.378h-0.894v0.764h0.894C82.743,2.122,82.975,2.004,82.975,1.736z"/>
				<path id="Path_18" fill="#FF9E15" d="M85.96,2.504c-0.086-1.463,1.031-2.719,2.495-2.805s2.72,1.031,2.806,2.495
					s-1.031,2.72-2.495,2.806c-0.052,0.003-0.104,0.004-0.155,0.004c-1.379,0.084-2.563-0.967-2.646-2.346
					C85.961,2.608,85.96,2.557,85.96,2.504z M89.772,2.504c-0.027-0.641-0.569-1.139-1.212-1.111
					c-0.642,0.027-1.139,0.57-1.111,1.212c0.026,0.622,0.539,1.112,1.162,1.112c0.633,0.011,1.153-0.494,1.163-1.127
					C89.775,2.561,89.774,2.534,89.772,2.504L89.772,2.504z"/>
				<path id="Path_19" fill="#FF9E15" d="M96.496,4.922l-0.624-2.744l-0.625,2.744h-1.54L92.32,0.079h1.641l0.624,2.963l0.732-2.963
					h1.101l0.732,2.963l0.617-2.963h1.648l-1.387,4.844H96.496z"/>
			</g>
		</g>
	</g>
	<g id="Group_8" transform="translate(218.475 95.557)">
		<g id="Group_7" transform="translate(19.251 44.838)">
			<g id="Group_6">
				<rect id="Rectangle_4" x="0" y="-0.001" fill="#FFFFFF" width="5.606" height="6.141"/>
				<rect id="Rectangle_5" x="0" y="11.479" fill="#FFFFFF" width="5.606" height="16.017"/>
			</g>
		</g>
		<path id="Path_20" fill="#FF9E15" d="M19.289,0H0v72.335h16.879v-5.627H5.625V5.626h13.663v36.971h5.626v-42.6L19.289,0z"/>
	</g>
</g>
</svg>
